# xmcd
#
# Track frame offsets: 
#        150
#        15160
#        31295
#        46087
#        65872
#        79751
#        92833
#        109193
#        120304
#        134726
#        151955
#        161784
#        178803
#        189642
#        200482
#        217132
#        235047
#        251252
#        262643
#        273840
#        286529
#        300504
#        311923
#
# Disc length: 4345 seconds
#
# Revision: 0
# Processed by: cddbd v1.5PL3 Copyright (c) Steve Scherf et al.
# Submitted via: ExactAudioCopy v0.90b4
#
DISCID=3810f717
DTITLE=Freddie King - My Feeling For The Blues+Is A Blues Master
DYEAR=1900
DGENRE=Blues
TTITLE0=Yonder Wall
TTITLE1=Stumble
TTITLE2=I Wonder Why
TTITLE3=Stormy Monday
TTITLE4=I Don't Know
TTITLE5=What'd Say
TTITLE6=Ain't Nobody's Business What We Do
TTITLE7=You Don't Have To Go
TTITLE8=Woke Up This Morning
TTITLE9=The Things I Used To Do
TTITLE10=My Feeling For The Blues
TTITLE11=Play It Cool
TTITLE12=That Will Never Do
TTITLE13=It's To Late, She's Gone
TTITLE14=Blue Shadows
TTITLE15=Today I Sing The Blues
TTITLE16=Get Out Of My Life, Woman
TTITLE17=Hideaway
TTITLE18=Funky
TTITLE19=Hot Tomato
TTITLE20=Wide Open
TTITLE21=Sweet Thing
TTITLE22=Let Me Down Easy
EXTD=
EXTT0=
EXTT1=
EXTT2=
EXTT3=
EXTT4=
EXTT5=
EXTT6=
EXTT7=
EXTT8=
EXTT9=
EXTT10=
EXTT11=
EXTT12=
EXTT13=
EXTT14=
EXTT15=
EXTT16=
EXTT17=
EXTT18=
EXTT19=
EXTT20=
EXTT21=
EXTT22=
PLAYORDER=
